<svg width="60" height="60" viewBox="0 0 60 60" fill="none" xmlns="http://www.w3.org/2000/svg">
<circle cx="30" cy="30" r="29.5" fill="white" stroke="#C3228F"/>
<path d="M22.8267 28.3867L25.76 25.4533C26.1333 25.08 26.24 24.56 26.0933 24.0933C25.6 22.6 25.3333 21 25.3333 19.3333C25.3333 18.6 24.7333 18 24 18H19.3333C18.6 18 18 18.6 18 19.3333C18 31.8533 28.1467 42 40.6667 42C41.4 42 42 41.4 42 40.6667V36.0133C42 35.28 41.4 34.68 40.6667 34.68C39.0133 34.68 37.4 34.4133 35.9067 33.92C35.44 33.76 34.9067 33.88 34.5467 34.24L31.6133 37.1733C27.84 35.24 24.7467 32.16 22.8267 28.3867Z" fill="#C3228F"/>
</svg>
