<svg width="16" height="16" viewBox="0 0 16 16" fill="none" xmlns="http://www.w3.org/2000/svg">
<path d="M15.9732 6.06925C15.9137 5.8915 15.7597 5.762 15.5744 5.7335L10.6559 4.982L8.45216 0.2875C8.36966 0.112 8.19316 0 7.99941 0C7.80566 0 7.62941 0.112 7.54666 0.2875L5.34291 4.982L0.42441 5.73375C0.23916 5.762 0.0854099 5.89175 0.0256599 6.0695C-0.0338401 6.247 0.0109099 6.443 0.14191 6.57725L3.71541 10.2415L2.87091 15.4175C2.83991 15.6065 2.91966 15.7967 3.07641 15.9067C3.16241 15.9675 3.26316 15.9982 3.36416 15.9982C3.44716 15.9982 3.53066 15.9772 3.60616 15.9357L7.99916 13.506L12.3922 15.9357C12.4677 15.9772 12.5512 15.9982 12.6342 15.9982C12.7352 15.9982 12.8362 15.9675 12.9219 15.9067C13.0787 15.7967 13.1584 15.6065 13.1274 15.4175L12.2829 10.2415L15.8564 6.57725C15.9877 6.44275 16.0327 6.24675 15.9732 6.06925Z" fill="#FED635"/>
</svg>
