<svg width="45" height="30" viewBox="0 0 45 30" fill="none" xmlns="http://www.w3.org/2000/svg">
<path d="M29.2518 1.02944C28.2552 1.17266 27.4146 1.43589 26.3609 1.93525C25.718 2.23718 21.5832 4.38557 20.617 4.91589C20.3545 5.05912 20.0046 5.24492 19.8372 5.33008C19.3351 5.57783 14.3558 8.1946 13.9031 8.44621C13.0853 8.89912 12.7468 9.22428 12.4691 9.81266C12.2713 10.2385 12.199 10.6062 12.2218 11.0707C12.2637 11.8023 12.5185 12.3598 13.0625 12.9133C13.6369 13.4978 14.1352 13.6875 15.0063 13.6527C15.5654 13.6333 15.7633 13.5714 16.5621 13.1611C17.7299 12.5611 21.1496 10.7804 21.7201 10.4707C22.6369 9.97525 27.0304 7.6875 28.1107 7.1417C29.2785 6.55718 29.5561 6.46815 30.355 6.43718C31.1994 6.40621 31.8385 6.55331 32.6373 6.97137C33.4133 7.37395 34.1208 8.10557 34.5278 8.91847C34.718 9.30557 34.9425 9.96363 34.9957 10.3081C35.0642 10.7301 35.0261 11.6204 34.9234 12.0075C34.68 12.9443 34.0942 13.9081 33.4171 14.4888C32.9644 14.8759 32.8199 14.9572 29.1187 16.8849C28.2628 17.334 27.2586 17.8604 26.8934 18.0578C26.5283 18.2552 25.7332 18.6733 25.1246 18.983C24.5198 19.2927 23.2873 19.9391 22.3858 20.4191C20.6931 21.3249 20.1301 21.6114 19.5139 21.8785C18.6732 22.2423 17.0604 22.7069 16.4822 22.7494C16.1208 22.7765 16.0409 22.8075 16.1284 22.8927C16.1589 22.9236 17.0604 23.392 18.1255 23.9378C19.1944 24.4798 20.2785 25.0488 20.5409 25.2036C21.0735 25.5133 21.4615 25.703 21.8533 25.8462C22.0663 25.9275 22.2146 25.9507 22.5988 25.9623C23.4167 25.9972 23.3824 26.0088 25.8093 24.7275C26.5206 24.3559 28.7725 23.1714 30.8114 22.103C35.8516 19.463 35.8364 19.4669 36.5743 18.8746C38.0731 17.6591 39.2485 15.9752 39.8305 14.2062C40.0435 13.5598 40.1994 12.9133 40.2717 12.3752C40.363 11.7017 40.363 10.1688 40.2717 9.56105C39.8533 6.81266 38.3812 4.37008 36.1901 2.79847C34.9082 1.87718 33.5578 1.3275 31.9792 1.07589C31.3059 0.971375 29.8338 0.944279 29.2518 1.02944Z" fill="#C3228F"/>
<path d="M13.751 1.02962C12.9407 1.15737 11.9898 1.3935 11.3735 1.62576C10.8866 1.81156 10.0003 2.26834 9.58189 2.54704C8.06033 3.56511 6.90776 4.88511 6.08992 6.53801C5.52314 7.68382 5.27969 8.49285 5.13134 9.73543C5.07048 10.2348 5.07048 11.7135 5.13134 12.2129C5.25687 13.2425 5.51934 14.1909 5.92635 15.0774C6.49313 16.3199 6.9496 17.0051 7.81688 17.9187C8.8097 18.9677 9.69601 19.5948 11.0654 20.2064C12.6364 20.907 14.7019 21.147 16.5354 20.8412C17.8059 20.6283 18.5971 20.3187 20.7501 19.1729C21.275 18.8941 22.3173 18.3483 23.0705 17.9612C23.8236 17.5741 24.4589 17.2412 24.4817 17.2219C24.5083 17.2025 25.0029 16.9354 25.5848 16.6296C31.5493 13.5174 31.6406 13.467 32.1009 13.1458C32.8084 12.6541 33.1698 11.8993 33.1698 10.9199C33.1698 9.89801 32.6182 9.01156 31.7053 8.57027C31.363 8.40382 31.0624 8.3264 30.6592 8.2993C29.9517 8.24898 29.5865 8.39608 27.0075 9.77027C26.5358 10.0219 25.2349 10.707 24.1165 11.2916C22.9982 11.8799 21.4843 12.6774 20.7501 13.0645C18.6009 14.2064 16.3072 15.3599 16.0675 15.4219C15.4779 15.5767 14.5612 15.5922 13.9221 15.4567C12.8684 15.2399 11.7919 14.4967 11.1719 13.5561C10.4111 12.4025 10.2095 11.1406 10.5595 9.76253C10.7573 8.98447 11.054 8.4464 11.5789 7.91608C12.2484 7.24253 12.5603 7.06059 16.9652 4.76124C19.685 3.34447 20.5409 2.88382 20.5295 2.84511C20.5143 2.79092 19.8182 2.31091 19.4796 2.12511C18.8291 1.75737 17.939 1.42447 17.1554 1.25414C16.1512 1.0335 16.1969 1.03737 15.0062 1.02575C14.3786 1.01801 13.8156 1.02188 13.751 1.02962Z" fill="#C3228F"/>
</svg>
